# xmcd CD database file
#
# Track frame offsets:
#	150
#	19692
#	43625
#	58522
#
# Disc length: 1033 seconds
#
# Revision: 1
# Processed by: cddbd v1.5.2PL0 Copyright (c) Steve Scherf et al.
# Submitted via: CDex 1.79
#
DISCID=29040704
DTITLE=Dan Fogelberg - Mega Hit
DYEAR=1981
DGENRE=Country
TTITLE0=Leader Of the Band
TTITLE1=Same Old Lang Syne
TTITLE2=Longer
TTITLE3=Power of God
EXTD=YEAR: 1981
EXTT0=
EXTT1=
EXTT2=
EXTT3=
PLAYORDER=
